Coordinates
version=1
nRows=16
nColumns=40
inDegrees=yes

Units are S.I. units (second, meters, Newtons, ...)
If the header above contains a line with 'inDegrees', this indicates whether rotational values are in degrees (yes) or radians (no).

endheader
time	pelvis_tilt	pelvis_list	pelvis_rotation	pelvis_tx	pelvis_ty	pelvis_tz	hip_flexion_r	hip_adduction_r	hip_rotation_r	knee_angle_r	knee_angle_r_beta	ankle_angle_r	subtalar_angle_r	mtp_angle_r	hip_flexion_l	hip_adduction_l	hip_rotation_l	knee_angle_l	knee_angle_l_beta	ankle_angle_l	subtalar_angle_l	mtp_angle_l	lumbar_extension	lumbar_bending	lumbar_rotation	arm_flex_r	arm_add_r	arm_rot_r	elbow_flex_r	pro_sup_r	wrist_flex_r	wrist_dev_r	arm_flex_l	arm_add_l	arm_rot_l	elbow_flex_l	pro_sup_l	wrist_flex_l	wrist_dev_l
      5.95000000	    -16.26431376	     -0.01937774	      1.72494592	     -0.37862773	      0.90778283	     -0.91712017	     44.16342632	    -11.62651344	     -1.15055950	     57.47577225	      1.00314147	     17.88303187	      0.00000000	      0.00000000	     44.85409763	    -10.96073982	     -1.34751653	     57.00530290	      0.99493023	     24.26415565	      0.00000000	      0.00000000	     -5.28644265	     -0.64609581	     -4.43559489	      7.78994304	    -39.35133702	     76.78436653	     69.39799022	     87.71690270	      0.00000000	      0.00000000	      5.90508968	    -40.37499217	     76.54600828	     72.91376357	     87.78136314	      0.00000000	      0.00000000
      5.95500000	    -15.81353366	     -0.28302381	      1.83717550	     -0.37453056	      0.91947566	     -0.91763379	     42.17034845	    -11.39344595	     -1.68302609	     54.76380722	      0.95580875	     15.84720530	      0.00000000	      0.00000000	     43.05545201	    -10.92384557	     -1.07598383	     54.50688259	      0.95132457	     22.47855163	      0.00000000	      0.00000000	     -4.76155026	     -0.30437502	     -4.53152823	      7.80958036	    -39.40735864	     76.94351823	     69.41246593	     87.71516826	      0.00000000	      0.00000000	      6.23533885	    -40.11753698	     77.26917678	     72.48610351	     87.78898897	      0.00000000	      0.00000000
      5.96000000	    -15.08465067	     -0.23614365	      1.77019985	     -0.36970460	      0.93194633	     -0.91815310	     39.84377560	    -11.36788851	     -2.10791859	     51.95758597	      0.90683095	     13.53546077	      0.00000000	      0.00000000	     40.70907685	    -10.79233948	     -1.34516346	     51.82247981	      0.90447290	     20.48040203	      0.00000000	      0.00000000	     -4.51991586	     -0.29743257	     -4.47388724	      7.76646289	    -39.36977029	     77.03022779	     69.24393474	     87.70553329	      0.00000000	      0.00000000	      6.58547803	    -39.82346547	     78.00388318	     71.95565841	     87.77369950	      0.00000000	      0.00000000
      5.96500000	    -14.50093897	      0.13604636	      1.58975402	     -0.36482197	      0.94457058	     -0.91884945	     37.68105312	    -11.48076033	     -1.95863250	     49.00312681	      0.85526591	     11.20582158	      0.00000000	      0.00000000	     38.26883693	    -10.30334465	     -1.63335052	     48.74428283	      0.85074823	     18.20929030	      0.00000000	      0.00000000	     -4.11850093	     -0.62924761	     -4.36006381	      7.69129315	    -39.31142694	     77.06529778	     69.07219049	     87.69505654	      0.00000000	      0.00000000	      6.75642068	    -39.61898680	     78.52053988	     71.61848136	     87.76599710	      0.00000000	      0.00000000
      5.97000000	    -13.74883261	      0.15191638	      1.60109615	     -0.36003116	      0.95748335	     -0.91911413	     35.18125627	    -11.43978276	     -2.50878810	     45.84680628	      0.80017772	      8.58271738	      0.00000000	      0.00000000	     35.79289855	    -10.15040997	     -1.82128989	     45.68378912	      0.79733253	     15.76549659	      0.00000000	      0.00000000	     -3.91792913	     -0.62041949	     -4.31717599	      7.52033539	    -39.13331970	     76.91663710	     68.73438921	     87.67659473	      0.00000000	      0.00000000	      7.19031600	    -39.51450847	     79.32139052	     71.35383607	     87.75526041	      0.00000000	      0.00000000
      5.97500000	    -13.41155726	      0.35143698	      1.59885766	     -0.35554066	      0.97013261	     -0.91955653	     33.12515207	    -11.44820412	     -2.52463859	     42.54639615	      0.74257470	      5.98792602	      0.00000000	      0.00000000	     33.66815883	     -9.68895823	     -1.75103548	     42.34088085	      0.73898778	     12.79940114	      0.00000000	      0.00000000	     -3.29006489	     -0.79175919	     -4.32215196	      7.34534992	    -39.02342492	     76.79931604	     68.58137837	     87.66887620	      0.00000000	      0.00000000	      7.26803262	    -39.51424674	     79.69500373	     71.35057192	     87.75094323	      0.00000000	      0.00000000
      5.98000000	    -12.42830747	      0.67815970	      1.44875169	     -0.34995281	      0.98400779	     -0.91984780	     30.20394337	    -11.60803699	     -2.87695614	     38.90506888	      0.67902155	      2.52362996	      0.00000000	      0.00000000	     30.60342319	     -9.29337021	     -2.19157532	     38.80093228	      0.67720402	     10.00834217	      0.00000000	      0.00000000	     -3.33188276	     -1.12391552	     -4.13152103	      6.99411418	    -38.70583629	     76.46719232	     67.96347642	     87.65485865	      0.00000000	      0.00000000	      7.46972264	    -39.39788079	     80.12756730	     71.08248491	     87.73883847	      0.00000000	      0.00000000
      5.98500000	    -11.72613287	      1.27932054	      1.19202526	     -0.34440403	      0.99756409	     -0.92024065	     27.61504420	    -11.90951167	     -2.70705031	     35.19226128	      0.61422083	     -0.92447870	      0.00000000	      0.00000000	     27.62408808	     -8.48303595	     -2.38460092	     34.75980151	      0.60667298	      6.53893272	      0.00000000	      0.00000000	     -3.03335001	     -1.73251708	     -3.96307719	      6.67962815	    -38.48047246	     76.20692750	     67.66116971	     87.64552706	      0.00000000	      0.00000000	      7.42547485	    -39.53830893	     80.36019416	     71.25213717	     87.72758732	      0.00000000	      0.00000000
      5.99000000	    -11.11492381	      1.44246242	      1.24094402	     -0.33944606	      1.01114999	     -0.92030545	     24.93049309	    -11.89134300	     -3.08082979	     31.14845867	      0.54364316	     -4.83643158	      0.00000000	      0.00000000	     25.00485619	     -8.06145056	     -2.26401148	     30.87380317	      0.53884952	      2.87053055	      0.00000000	      0.00000000	     -2.71530637	     -1.93057612	     -3.94949153	      6.22260796	    -38.09897557	     75.73071452	     67.00778844	     87.62708568	      0.00000000	      0.00000000	      7.44139050	    -39.67821426	     80.41033396	     71.38041102	     87.70481963	      0.00000000	      0.00000000
      5.99500000	    -10.33101658	      1.89808687	      0.92854019	     -0.33359106	      1.02503396	     -0.92046992	     22.03142694	    -12.00806655	     -2.96726253	     26.88332350	      0.46920251	     -9.20820493	      0.00000000	      0.00000000	     21.90814887	     -7.41838879	     -2.43433727	     26.62579197	      0.46470774	     -1.50015279	      0.00000000	      0.00000000	     -2.50431626	     -2.39886981	     -3.71565119	      5.78540326	    -37.79133239	     75.24060264	     66.56365525	     87.62145441	      0.00000000	      0.00000000	      7.18760136	    -39.82392912	     80.35759805	     71.56690441	     87.70418516	      0.00000000	      0.00000000
      6.00000000	     -9.66137438	      2.15952854	      0.87202272	     -0.32812521	      1.03863795	     -0.92060398	     19.12929169	    -12.00025678	     -3.08554233	     22.41584589	      0.39123032	    -13.85273799	      0.00000000	      0.00000000	     19.06367467	     -6.89975735	     -2.36941219	     22.33025701	      0.38973651	     -6.09297289	      0.00000000	      0.00000000	     -2.20477652	     -2.66444291	     -3.62063084	      5.17391072	    -37.48135356	     74.61885298	     66.08766623	     87.60428607	      0.00000000	      0.00000000	      6.97889246	    -40.03577161	     80.10710467	     71.87055507	     87.70120127	      0.00000000	      0.00000000
      6.00500000	     -9.17155211	      2.18262607	      0.92686389	     -0.32317015	      1.05201794	     -0.92062490	     16.36069125	    -11.72994906	     -3.17868176	     17.80411320	      0.31074040	    -18.76893582	      0.00000000	      0.00000000	     16.53811022	     -6.57832938	     -1.75288469	     18.07901674	      0.31553837	    -10.61344517	      0.00000000	      0.00000000	     -1.75544372	     -2.70578513	     -3.59095206	      4.50799532	    -37.07642146	     73.90575207	     65.48960321	     87.61066485	      0.00000000	      0.00000000	      6.74226320	    -40.25149717	     79.71944835	     72.16295149	     87.68797365	      0.00000000	      0.00000000
      6.01000000	     -8.51280985	      2.69481854	      0.61241190	     -0.31729766	      1.06557050	     -0.92079573	     13.51268972	    -11.95580905	     -2.90713385	     13.08633287	      0.22839960	    -24.14698860	      0.00000000	      0.00000000	     13.52287852	     -5.82691787	     -1.62492947	     13.45862449	      0.23489731	    -14.98884564	      0.00000000	      0.00000000	     -1.40264100	     -3.23178336	     -3.33225971	      3.87864258	    -36.68787499	     73.22567973	     64.88954287	     87.60824016	      0.00000000	      0.00000000	      6.32258165	    -40.50790580	     79.29792580	     72.54467844	     87.66260299	      0.00000000	      0.00000000
      6.01500000	     -8.05146065	      2.85045830	      0.46763687	     -0.31200888	      1.07868878	     -0.92083643	     10.90265443	    -11.83391761	     -2.75715531	      8.43441416	      0.14720830	    -29.14068357	      0.00000000	      0.00000000	     10.91271986	     -5.45542517	     -0.81588548	      9.19451886	      0.16047463	    -18.05361443	      0.00000000	      0.00000000	     -0.88016271	     -3.37673157	     -3.13041775	      3.13666007	    -36.34999896	     72.48778110	     64.37803931	     87.60270820	      0.00000000	      0.00000000	      5.91840184	    -40.72308316	     78.74217632	     72.92416635	     87.67083671	      0.00000000	      0.00000000
      6.02000000	     -8.04184415	      2.66683734	      0.31184385	     -0.30765450	      1.09105907	     -0.92049836	      9.07182196	    -11.37562892	     -2.61195672	      4.35797866	      0.07606108	    -33.18759050	      0.00000000	      0.00000000	      9.09823806	     -5.54130354	     -0.20995594	      5.64843924	      0.09858386	    -19.41316740	      0.00000000	      0.00000000	      0.02185984	     -3.18425498	     -2.95193589	      2.42593838	    -36.02074727	     71.57424414	     63.97161654	     87.59903585	      0.00000000	      0.00000000	      5.41288049	    -40.89671170	     77.95991024	     73.23485620	     87.67114705	      0.00000000	      0.00000000
      6.02500000	     -7.86898632	      2.79749767	      0.26415912	     -0.30332130	      1.10332111	     -0.92067495	      7.52223092	    -11.33830204	     -3.41196890	      1.57495898	      0.02748822	    -35.08715974	      0.00000000	      0.00000000	      7.46110979	     -5.29462760	     -0.39002415	      3.10271436	      0.05415258	    -19.77063144	      0.00000000	      0.00000000	      0.79924327	     -3.29552775	     -2.91503163	      1.93861260	    -35.58153530	     70.92320689	     63.40599692	     87.46896695	      0.00000000	      0.00000000	      5.12282756	    -41.16100439	     77.60273901	     73.79122342	     87.67628444	      0.00000000	      0.00000000
